<?xml version="1.0" standalone="no"?>
<!DOCTYPE svg PUBLIC "-//W3C//DTD SVG 20010904//EN"
 "http://www.w3.org/TR/2001/REC-SVG-20010904/DTD/svg10.dtd">
<svg version="1.0" xmlns="http://www.w3.org/2000/svg"
 width="512.000000pt" height="512.000000pt" viewBox="0 0 512.000000 512.000000"
 preserveAspectRatio="xMidYMid meet">
<metadata>
Created by potrace 1.11, written by Peter Selinger 2001-2013
</metadata>
<g transform="translate(0.000000,512.000000) scale(0.100000,-0.100000)"
fill="#000000" stroke="none">
<path d="M2310 4615 c-242 -30 -487 -106 -705 -219 -44 -22 -81 -44 -83 -48
-2 -5 -8 -8 -13 -8 -14 0 -177 -111 -246 -167 -350 -283 -599 -672 -709 -1106
-14 -54 -27 -115 -30 -135 -2 -20 -7 -50 -10 -65 -13 -62 -15 -89 -19 -267 -4
-186 6 -297 38 -462 15 -70 50 -202 64 -238 3 -8 7 -19 9 -25 1 -5 19 -50 39
-100 201 -496 621 -918 1115 -1123 152 -64 356 -122 479 -137 20 -3 66 -9 102
-14 95 -13 418 -6 533 13 288 46 583 159 816 311 244 159 497 424 648 675 104
175 200 412 236 585 20 91 28 135 32 165 3 19 7 46 10 60 13 58 12 418 -2 511
-56 398 -212 758 -452 1049 -83 100 -268 279 -346 335 -15 11 -47 34 -70 51
-68 50 -186 119 -299 173 -97 47 -316 127 -377 138 -14 2 -41 8 -60 13 -173
45 -489 60 -700 35z"/>
</g>
</svg>
